# xmcd
#
# Track frame offsets:
#	150
#	13590
#	27645
#	36950
#	49653
#	60023
#	72391
#	83439
#	96712
#	110122
#	124187
#	133540
#	146303
#	156701
#	169079
#	180099
#
# Disc length: 2575
#
# Revision: 1
# Processed by: cddbd v1.5.2PL0 Copyright (c) Steve Scherf et al.
# Submitted via: kJams Pro (development) 1.0patch46
#
DISCID=d90a0d10
DTITLE=Patsy Cline - Ps 101
DYEAR=1980
DGENRE=Country
TTITLE0=Patsy Cline - Vocals - I Fall To Pieces
TTITLE1=Patsy Cline - Vocals - She's Got You
TTITLE2=Patsy Cline - Vocals - Walkin' After Midnight
TTITLE3=Patsy Cline - Vocals - Sweet Dreams
TTITLE4=Patsy Cline - Vocals - Three Cigarettes In An Ashtray
TTITLE5=Patsy Cline - Vocals - Crazy
TTITLE6=Patsy Cline - Vocals - Half As Much
TTITLE7=Patsy Cline - Vocals - Imagine That
TTITLE8=Patsy Cline - I Fall To Pieces
TTITLE9=Patsy Cline - She's Got You
TTITLE10=Patsy Cline - Walkin' After Midnight
TTITLE11=Patsy Cline - Sweet Dreams
TTITLE12=Patsy Cline - Three Cigarettes In An Ashtray
TTITLE13=Patsy Cline - Crazy
TTITLE14=Patsy Cline - Half As Much
TTITLE15=Patsy Cline - Imagine That
EXTD=
EXTT0=
EXTT1=
EXTT2=
EXTT3=
EXTT4=
EXTT5=
EXTT6=
EXTT7=
EXTT8=
EXTT9=
EXTT10=
EXTT11=
EXTT12=
EXTT13=
EXTT14=
EXTT15=
PLAYORDER=
